<svg xmlns="http://www.w3.org/2000/svg" viewBox="0 0 24 24" fill="currentColor">
  <path d="M12 .5C5.65.5.5 5.65.5 12c0 5.1 3.3 9.42 7.88 10.95.58.1.79-.25.79-.56v-1.97c-3.2.7-3.88-1.54-3.88-1.54-.52-1.33-1.28-1.68-1.28-1.68-1.05-.72.08-.7.08-.7 1.16.08 1.77 1.19 1.77 1.19 1.03 1.76 2.7 1.25 3.36.96.1-.75.4-1.25.73-1.54-2.56-.29-5.25-1.28-5.25-5.7 0-1.26.45-2.29 1.19-3.1-.12-.29-.52-1.47.11-3.06 0 0 .97-.31 3.18 1.19a11.07 11.07 0 0 1 5.8 0c2.2-1.5 3.17-1.19 3.17-1.19.63 1.59.23 2.77.11 3.06.74.81 1.19 1.84 1.19 3.1 0 4.43-2.7 5.41-5.27 5.69.41.36.78 1.07.78 2.15v3.19c0 .31.21.67.8.56C20.2 21.42 23.5 17.1 23.5 12 23.5 5.65 18.35.5 12 .5z"/>
</svg>
